<svg xmlns="http://www.w3.org/2000/svg" xmlns:xlink="http://www.w3.org/1999/xlink" width="4608" zoomAndPan="magnify" viewBox="0 0 3456 1727.999927" height="2304" preserveAspectRatio="xMidYMid meet" version="1.0"><defs><g/></defs><g fill="#000000" fill-opacity="1"><g transform="translate(1163.494894, 851.168482)"><g><path d="M 9.347656 20.851562 C 23.007812 -14.378906 51.769531 -79.8125 70.464844 -76.21875 C 82.6875 -73.820312 62.796875 -27.5625 63.273438 4.792969 C 63.515625 18.457031 74.300781 27.324219 90.117188 15.578125 C 111.691406 -0.480469 136.855469 -39.066406 150.039062 -56.324219 C 150.039062 -57.523438 146.921875 -57.523438 145.964844 -56.5625 C 135.65625 -43.382812 106.175781 0.480469 85.804688 14.378906 C 76.21875 20.851562 73.582031 16.539062 75.5 0.957031 C 78.855469 -26.84375 95.632812 -73.339844 71.425781 -79.332031 C 52.96875 -83.886719 29.960938 -40.265625 9.347656 10.546875 C 12.941406 -20.851562 17.015625 -61.835938 19.414062 -71.425781 C 97.789062 -159.386719 85.085938 -205.164062 60.878906 -205.164062 C 17.496094 -205.164062 -2.636719 -86.042969 -7.191406 22.050781 C -7.191406 31.398438 6.472656 30.199219 9.347656 20.851562 Z M 20.132812 -77.65625 C 26.605469 -135.65625 44.101562 -200.371094 59.679688 -201.570312 C 80.050781 -203.246094 92.035156 -163.460938 20.132812 -77.65625 Z M 20.132812 -77.65625 "/></g></g></g><g fill="#000000" fill-opacity="1"><g transform="translate(1308.020227, 851.168482)"><g><path d="M 29.71875 5.992188 C 15.339844 10.066406 5.511719 -14.378906 13.660156 -55.605469 C 75.976562 -74.058594 48.175781 -119.121094 18.214844 -91.558594 C -13.183594 -62.796875 -8.390625 12.464844 30.199219 9.347656 C 51.769531 2.875 79.09375 -39.066406 92.277344 -56.324219 C 92.277344 -57.523438 89.160156 -57.523438 88.203125 -56.5625 C 77.894531 -43.382812 49.613281 0.480469 29.71875 5.992188 Z M 14.859375 -59.679688 C 18.933594 -73.582031 27.800781 -97.789062 41.464844 -96.589844 C 50.8125 -94.914062 55.84375 -72.382812 14.859375 -59.679688 Z M 14.859375 -59.679688 "/></g></g></g><g fill="#000000" fill-opacity="1"><g transform="translate(1395.502387, 851.168482)"><g><path d="M 59.199219 15.820312 C -10.066406 71.664062 -11.023438 152.195312 24.445312 153.871094 C 59.199219 155.550781 67.589844 79.09375 76.21875 9.347656 C 90.835938 1.679688 128.945312 -24.925781 155.070312 -56.085938 C 155.070312 -57.28125 151.238281 -57.28125 150.515625 -56.324219 C 128.226562 -30.679688 92.753906 -4.554688 76.695312 4.554688 C 79.332031 -36.910156 82.210938 -75.5 88.921875 -88.679688 C 88.679688 -95.632812 77.414062 -99.707031 69.507812 -82.6875 C 47.695312 -35.710938 30.917969 8.628906 19.414062 9.347656 C 7.667969 10.066406 15.820312 -53.207031 21.089844 -77.175781 C 23.726562 -88.921875 7.429688 -87.722656 3.835938 -76.21875 C -3.117188 -54.886719 -7.429688 11.023438 18.695312 12.703125 C 34.273438 13.660156 52.011719 -35.953125 69.027344 -69.984375 C 63.035156 -43.859375 60.160156 6.949219 59.199219 15.820312 Z M 58.960938 21.089844 C 53.207031 74.058594 45.539062 150.996094 25.167969 150.039062 C -5.992188 148.601562 -2.398438 74.058594 58.960938 21.089844 Z M 58.960938 21.089844 "/></g></g></g><g fill="#000000" fill-opacity="1"><g transform="translate(1545.540298, 851.168482)"><g><path d="M 4.3125 -1.917969 C 5.273438 -1.4375 5.273438 0.480469 3.59375 2.398438 C 1.679688 4.792969 2.636719 5.035156 2.875 5.035156 C 4.074219 5.273438 9.109375 2.636719 10.304688 -1.4375 C 11.023438 -4.554688 10.546875 -7.667969 7.667969 -7.910156 C 3.117188 -7.910156 2.15625 -3.355469 4.3125 -1.917969 Z M 4.3125 -1.917969 "/></g></g></g><g fill="#000000" fill-opacity="1"><g transform="translate(1568.305506, 851.168482)"><g/></g></g><g fill="#000000" fill-opacity="1"><g transform="translate(1628.22392, 851.168482)"><g><path d="M 9.347656 20.851562 C 23.007812 -14.378906 51.769531 -79.8125 70.464844 -76.21875 C 82.6875 -73.820312 62.796875 -27.5625 63.273438 4.792969 C 63.515625 18.457031 74.300781 27.324219 90.117188 15.578125 C 111.691406 -0.480469 136.855469 -39.066406 150.039062 -56.324219 C 150.039062 -57.523438 146.921875 -57.523438 145.964844 -56.5625 C 135.65625 -43.382812 106.175781 0.480469 85.804688 14.378906 C 76.21875 20.851562 73.582031 16.539062 75.5 0.957031 C 78.855469 -26.84375 95.632812 -73.339844 71.425781 -79.332031 C 52.96875 -83.886719 29.960938 -40.265625 9.347656 10.546875 C 12.941406 -20.851562 17.015625 -61.835938 19.414062 -71.425781 C 97.789062 -159.386719 85.085938 -205.164062 60.878906 -205.164062 C 17.496094 -205.164062 -2.636719 -86.042969 -7.191406 22.050781 C -7.191406 31.398438 6.472656 30.199219 9.347656 20.851562 Z M 20.132812 -77.65625 C 26.605469 -135.65625 44.101562 -200.371094 59.679688 -201.570312 C 80.050781 -203.246094 92.035156 -163.460938 20.132812 -77.65625 Z M 20.132812 -77.65625 "/></g></g></g><g fill="#000000" fill-opacity="1"><g transform="translate(1772.749254, 851.168482)"><g><path d="M 73.339844 -75.019531 C 75.019531 -82.449219 61.359375 -85.085938 56.804688 -71.664062 C 41.945312 -27.800781 26.363281 16.296875 15.578125 16.058594 C 0.238281 15.578125 11.503906 -47.933594 17.015625 -73.339844 C 19.175781 -80.292969 6.710938 -84.367188 2.398438 -72.144531 C -3.59375 -55.367188 -19.175781 20.371094 15.578125 19.175781 C 30.199219 18.695312 43.140625 -22.050781 52.730469 -46.496094 C 46.019531 -15.101562 49.851562 11.265625 58.960938 19.175781 C 88.441406 45.058594 139.972656 -44.339844 152.675781 -56.324219 C 152.675781 -57.523438 149.558594 -57.523438 148.601562 -56.5625 C 139.492188 -46.019531 85.324219 37.628906 63.992188 17.976562 C 54.167969 5.992188 71.183594 -65.910156 73.339844 -75.019531 Z M 73.339844 -75.019531 "/></g></g></g><g fill="#000000" fill-opacity="1"><g transform="translate(1920.150741, 851.168482)"><g><path d="M 108.335938 3.355469 C 108.8125 -17.976562 123.671875 -47.214844 128.707031 -69.984375 C 133.019531 -89.398438 120.796875 -92.996094 115.765625 -92.515625 C 92.753906 -89.878906 69.746094 -31.15625 59.679688 -12.941406 C 70.703125 -50.332031 81.730469 -91.558594 57.28125 -93.234375 C 35.472656 -92.277344 24.925781 -61.117188 6.472656 -6.472656 C 10.304688 -29 11.023438 -35.710938 16.539062 -60.398438 C 17.257812 -70.945312 1.199219 -66.390625 -0.238281 -57.761719 C -6.230469 -20.371094 -9.109375 -1.4375 -10.546875 17.734375 C -11.265625 27.5625 2.636719 22.289062 4.3125 16.058594 C 26.363281 -57.042969 40.746094 -90.359375 57.042969 -90.117188 C 63.753906 -89.878906 46.257812 -33.792969 48.414062 -11.023438 C 49.132812 -3.355469 55.84375 -0.957031 60.398438 -6.472656 C 76.21875 -36.429688 99.464844 -91.078125 117.441406 -89.160156 C 122.953125 -87.242188 93.234375 -29.71875 98.988281 3.59375 C 102.582031 23.96875 121.277344 27.082031 136.375 15.578125 C 157.949219 -0.480469 183.113281 -39.066406 196.296875 -56.324219 C 196.296875 -57.523438 193.179688 -57.523438 192.222656 -56.5625 C 181.914062 -43.382812 152.675781 0.71875 132.0625 14.378906 C 118.402344 23.25 107.855469 17.257812 108.335938 3.355469 Z M 108.335938 3.355469 "/></g></g></g><g fill="#000000" fill-opacity="1"><g transform="translate(2111.173489, 851.168482)"><g><path d="M 64.953125 14.378906 C 30.679688 37.867188 56.324219 -68.546875 72.144531 -94.914062 C 73.582031 -100.664062 59.679688 -103.78125 54.886719 -93.234375 L 52.730469 -88.921875 C 39.308594 -94.671875 7.910156 -90.359375 0 -57.28125 C -5.511719 -33.792969 3.835938 -17.734375 15.820312 -20.371094 C 22.53125 -21.8125 30.199219 -36.429688 46.496094 -67.828125 C 30.199219 -25.886719 31.878906 43.140625 69.265625 15.578125 C 90.835938 -0.480469 116.003906 -39.066406 129.1875 -56.324219 C 129.1875 -57.523438 126.070312 -57.523438 125.113281 -56.5625 C 114.804688 -43.382812 85.804688 0.957031 64.953125 14.378906 Z M 51.289062 -85.566406 C 39.308594 -63.273438 22.769531 -29 17.496094 -25.167969 C 6.949219 -37.390625 21.089844 -97.546875 51.289062 -85.566406 Z M 51.289062 -85.566406 "/></g></g></g><g fill="#000000" fill-opacity="1"><g transform="translate(2236.284961, 851.168482)"><g><path d="M 17.015625 -73.339844 C 17.976562 -82.6875 4.074219 -76.695312 1.679688 -67.109375 C -5.273438 -23.726562 -3.117188 -30.679688 -7.191406 -0.480469 C -7.910156 5.511719 1.4375 10.785156 5.035156 0 L 9.585938 -24.207031 C 28.042969 -86.761719 56.5625 -114.085938 69.027344 -104.980469 C 81.492188 -96.109375 44.820312 1.679688 66.871094 13.183594 C 73.101562 16.296875 76.457031 16.296875 84.847656 10.066406 C 106.417969 -5.992188 130.382812 -39.066406 143.566406 -56.324219 C 143.566406 -57.523438 140.449219 -57.523438 139.492188 -56.5625 C 129.1875 -43.382812 101.625 -4.074219 80.53125 8.867188 C 44.820312 30.679688 104.019531 -81.730469 71.425781 -107.855469 C 59.441406 -117.203125 34.753906 -101.625 13.660156 -47.933594 C 14.859375 -55.84375 15.820312 -63.035156 17.015625 -73.339844 Z M 17.015625 -73.339844 "/></g></g></g><g fill="#000000" fill-opacity="1"><g transform="translate(2373.85963, 851.168482)"><g><path d="M 18.695312 27.800781 C 17.015625 -46.496094 52.730469 -121.996094 70.226562 -152.914062 C 76.21875 -163.460938 61.835938 -171.609375 53.449219 -158.1875 C 40.027344 -136.855469 12.703125 -46.496094 13.902344 26.363281 C 13.902344 31.636719 17.976562 31.15625 18.695312 27.800781 Z M 17.496094 40.265625 C 4.792969 42.421875 9.109375 62.316406 17.976562 60.878906 C 26.84375 58.722656 29 40.027344 17.496094 40.265625 Z M 17.496094 40.265625 "/></g></g></g><g fill="#000000" fill-opacity="1"><g transform="translate(1460.366323, 1095.361946)"><g><path d="M 8.453125 -7.71875 C 13.210938 -13.40625 16.628906 -17.535156 18.703125 -20.109375 C 20.773438 -22.679688 22.472656 -25.097656 23.796875 -27.359375 C 25.234375 -29.796875 26.269531 -32.132812 26.90625 -34.375 C 27.539062 -36.613281 27.859375 -38.894531 27.859375 -41.21875 C 27.859375 -43.695312 27.359375 -45.832031 26.359375 -47.625 C 25.367188 -49.425781 24.054688 -50.796875 22.421875 -51.734375 C 20.796875 -52.679688 19.046875 -53.15625 17.171875 -53.15625 C 13.679688 -53.15625 10.875 -51.882812 8.75 -49.34375 C 6.625 -46.800781 5.5625 -43.59375 5.5625 -39.71875 C 4.5625 -41.101562 4.0625 -42.925781 4.0625 -45.1875 C 4.0625 -47.289062 4.597656 -49.335938 5.671875 -51.328125 C 6.753906 -53.316406 8.375 -54.929688 10.53125 -56.171875 C 12.6875 -57.421875 15.285156 -58.046875 18.328125 -58.046875 C 21.148438 -58.046875 23.734375 -57.378906 26.078125 -56.046875 C 28.429688 -54.722656 30.3125 -52.84375 31.71875 -50.40625 C 33.125 -47.976562 33.828125 -45.160156 33.828125 -41.953125 C 33.828125 -36.753906 31.753906 -31.363281 27.609375 -25.78125 C 23.742188 -20.476562 18.828125 -14.484375 12.859375 -7.796875 L 10.359375 -4.96875 L 27.203125 -4.96875 C 30.078125 -4.96875 32.234375 -5.394531 33.671875 -6.25 C 35.109375 -7.113281 36.070312 -7.960938 36.5625 -8.796875 L 35 0 L 1.984375 0 Z M 8.453125 -7.71875 "/></g></g></g><g fill="#000000" fill-opacity="1"><g transform="translate(1520.15619, 1095.361946)"><g><path d="M 16.75 -29.4375 C 12.320312 -27.113281 9.085938 -24.773438 7.046875 -22.421875 C 5.003906 -20.078125 3.984375 -17.25 3.984375 -13.9375 C 3.984375 -11.332031 4.644531 -8.894531 5.96875 -6.625 C 7.289062 -4.363281 9.222656 -2.523438 11.765625 -1.109375 C 14.316406 0.296875 17.359375 1 20.890625 1 C 24.265625 1 27.238281 0.28125 29.8125 -1.15625 C 32.382812 -2.59375 34.359375 -4.484375 35.734375 -6.828125 C 37.117188 -9.179688 37.8125 -11.660156 37.8125 -14.265625 C 37.8125 -16.585938 37.421875 -18.617188 36.640625 -20.359375 C 35.867188 -22.097656 34.613281 -23.769531 32.875 -25.375 C 31.132812 -26.976562 28.660156 -28.75 25.453125 -30.6875 C 28.492188 -32.226562 30.925781 -34.226562 32.75 -36.6875 C 34.570312 -39.15625 35.484375 -41.878906 35.484375 -44.859375 C 35.484375 -47.234375 34.847656 -49.429688 33.578125 -51.453125 C 32.304688 -53.472656 30.566406 -55.078125 28.359375 -56.265625 C 26.148438 -57.453125 23.660156 -58.046875 20.890625 -58.046875 C 18.128906 -58.046875 15.640625 -57.421875 13.421875 -56.171875 C 11.210938 -54.929688 9.488281 -53.273438 8.25 -51.203125 C 7.007812 -49.128906 6.390625 -46.847656 6.390625 -44.359375 C 6.390625 -38.671875 9.84375 -33.695312 16.75 -29.4375 Z M 20.984375 -33.25 C 18.046875 -35.019531 15.640625 -36.910156 13.765625 -38.921875 C 11.890625 -40.941406 10.953125 -43.171875 10.953125 -45.609375 C 10.953125 -48.367188 11.914062 -50.632812 13.84375 -52.40625 C 15.78125 -54.175781 18.128906 -55.0625 20.890625 -55.0625 C 23.710938 -55.0625 26.050781 -54.066406 27.90625 -52.078125 C 29.757812 -50.085938 30.6875 -47.65625 30.6875 -44.78125 C 30.6875 -41.6875 29.925781 -39.113281 28.40625 -37.0625 C 26.882812 -35.019531 24.960938 -33.414062 22.640625 -32.25 Z M 21.234375 -26.78125 C 23.660156 -25.289062 25.601562 -23.992188 27.0625 -22.890625 C 28.53125 -21.785156 29.789062 -20.429688 30.84375 -18.828125 C 31.894531 -17.222656 32.421875 -15.367188 32.421875 -13.265625 C 32.421875 -9.890625 31.3125 -7.164062 29.09375 -5.09375 C 26.882812 -3.019531 24.148438 -1.984375 20.890625 -1.984375 C 18.460938 -1.984375 16.347656 -2.550781 14.546875 -3.6875 C 12.753906 -4.820312 11.359375 -6.328125 10.359375 -8.203125 C 9.367188 -10.085938 8.875 -12.109375 8.875 -14.265625 C 8.875 -16.804688 9.382812 -18.929688 10.40625 -20.640625 C 11.425781 -22.359375 12.640625 -23.703125 14.046875 -24.671875 C 15.460938 -25.640625 17.273438 -26.675781 19.484375 -27.78125 Z M 21.234375 -26.78125 "/></g></g></g><g fill="#000000" fill-opacity="1"><g transform="translate(1581.936247, 1095.361946)"><g><path d="M 10.609375 0.828125 C 9.503906 0.828125 8.523438 0.457031 7.671875 -0.28125 C 6.816406 -1.03125 6.390625 -2.070312 6.390625 -3.40625 C 6.390625 -4.726562 6.800781 -5.75 7.625 -6.46875 C 8.457031 -7.1875 9.453125 -7.546875 10.609375 -7.546875 C 11.773438 -7.546875 12.769531 -7.1875 13.59375 -6.46875 C 14.425781 -5.75 14.84375 -4.726562 14.84375 -3.40625 C 14.84375 -2.070312 14.410156 -1.03125 13.546875 -0.28125 C 12.691406 0.457031 11.710938 0.828125 10.609375 0.828125 Z M 10.609375 0.828125 "/></g></g></g><g fill="#000000" fill-opacity="1"><g transform="translate(1623.150992, 1095.361946)"><g><path d="M 3.984375 -26.953125 C 3.984375 -33.140625 4.726562 -38.597656 6.21875 -43.328125 C 7.707031 -48.054688 9.765625 -51.691406 12.390625 -54.234375 C 15.015625 -56.773438 17.988281 -58.046875 21.3125 -58.046875 C 24.570312 -58.046875 27.5 -56.9375 30.09375 -54.71875 C 32.695312 -52.507812 34.742188 -49.304688 36.234375 -45.109375 C 37.722656 -40.910156 38.46875 -35.90625 38.46875 -30.09375 C 38.46875 -23.90625 37.722656 -18.445312 36.234375 -13.71875 C 34.742188 -9 32.6875 -5.363281 30.0625 -2.8125 C 27.4375 -0.269531 24.460938 1 21.140625 1 C 17.878906 1 14.945312 -0.101562 12.34375 -2.3125 C 9.75 -4.53125 7.707031 -7.738281 6.21875 -11.9375 C 4.726562 -16.144531 3.984375 -21.148438 3.984375 -26.953125 Z M 32.5 -26.03125 C 32.5 -32.113281 31.972656 -37.335938 30.921875 -41.703125 C 29.878906 -46.078125 28.441406 -49.382812 26.609375 -51.625 C 24.785156 -53.863281 22.742188 -55.007812 20.484375 -55.0625 C 18.429688 -55.0625 16.601562 -54.066406 15 -52.078125 C 13.40625 -50.085938 12.164062 -47.28125 11.28125 -43.65625 C 10.394531 -40.039062 9.953125 -35.828125 9.953125 -31.015625 C 9.953125 -24.929688 10.476562 -19.707031 11.53125 -15.34375 C 12.582031 -10.976562 14.019531 -7.660156 15.84375 -5.390625 C 17.664062 -3.117188 19.707031 -1.984375 21.96875 -1.984375 C 24.019531 -1.984375 25.847656 -2.976562 27.453125 -4.96875 C 29.054688 -6.957031 30.296875 -9.765625 31.171875 -13.390625 C 32.054688 -17.015625 32.5 -21.226562 32.5 -26.03125 Z M 32.5 -26.03125 "/></g></g></g><g fill="#000000" fill-opacity="1"><g transform="translate(1685.594447, 1095.361946)"><g><path d="M 37.484375 -19.5625 L 37.484375 -15.59375 L 30.515625 -15.59375 L 30.515625 -7.71875 C 30.515625 -3.675781 31.34375 -1.101562 33 0 L 22.796875 0 C 23.242188 -0.113281 23.753906 -0.734375 24.328125 -1.859375 C 24.910156 -2.992188 25.203125 -4.972656 25.203125 -7.796875 L 25.203125 -15.59375 L 0.171875 -15.59375 L 30.515625 -58.875 L 30.515625 -19.5625 Z M 25.203125 -45.6875 L 6.96875 -19.5625 L 25.203125 -19.5625 Z M 25.203125 -45.6875 "/></g></g></g><g fill="#000000" fill-opacity="1"><g transform="translate(1747.374511, 1095.361946)"><g><path d="M 10.609375 0.828125 C 9.503906 0.828125 8.523438 0.457031 7.671875 -0.28125 C 6.816406 -1.03125 6.390625 -2.070312 6.390625 -3.40625 C 6.390625 -4.726562 6.800781 -5.75 7.625 -6.46875 C 8.457031 -7.1875 9.453125 -7.546875 10.609375 -7.546875 C 11.773438 -7.546875 12.769531 -7.1875 13.59375 -6.46875 C 14.425781 -5.75 14.84375 -4.726562 14.84375 -3.40625 C 14.84375 -2.070312 14.410156 -1.03125 13.546875 -0.28125 C 12.691406 0.457031 11.710938 0.828125 10.609375 0.828125 Z M 10.609375 0.828125 "/></g></g></g><g fill="#000000" fill-opacity="1"><g transform="translate(1788.589256, 1095.361946)"><g><path d="M 8.453125 -7.71875 C 13.210938 -13.40625 16.628906 -17.535156 18.703125 -20.109375 C 20.773438 -22.679688 22.472656 -25.097656 23.796875 -27.359375 C 25.234375 -29.796875 26.269531 -32.132812 26.90625 -34.375 C 27.539062 -36.613281 27.859375 -38.894531 27.859375 -41.21875 C 27.859375 -43.695312 27.359375 -45.832031 26.359375 -47.625 C 25.367188 -49.425781 24.054688 -50.796875 22.421875 -51.734375 C 20.796875 -52.679688 19.046875 -53.15625 17.171875 -53.15625 C 13.679688 -53.15625 10.875 -51.882812 8.75 -49.34375 C 6.625 -46.800781 5.5625 -43.59375 5.5625 -39.71875 C 4.5625 -41.101562 4.0625 -42.925781 4.0625 -45.1875 C 4.0625 -47.289062 4.597656 -49.335938 5.671875 -51.328125 C 6.753906 -53.316406 8.375 -54.929688 10.53125 -56.171875 C 12.6875 -57.421875 15.285156 -58.046875 18.328125 -58.046875 C 21.148438 -58.046875 23.734375 -57.378906 26.078125 -56.046875 C 28.429688 -54.722656 30.3125 -52.84375 31.71875 -50.40625 C 33.125 -47.976562 33.828125 -45.160156 33.828125 -41.953125 C 33.828125 -36.753906 31.753906 -31.363281 27.609375 -25.78125 C 23.742188 -20.476562 18.828125 -14.484375 12.859375 -7.796875 L 10.359375 -4.96875 L 27.203125 -4.96875 C 30.078125 -4.96875 32.234375 -5.394531 33.671875 -6.25 C 35.109375 -7.113281 36.070312 -7.960938 36.5625 -8.796875 L 35 0 L 1.984375 0 Z M 8.453125 -7.71875 "/></g></g></g><g fill="#000000" fill-opacity="1"><g transform="translate(1848.379116, 1095.361946)"><g><path d="M 3.984375 -26.953125 C 3.984375 -33.140625 4.726562 -38.597656 6.21875 -43.328125 C 7.707031 -48.054688 9.765625 -51.691406 12.390625 -54.234375 C 15.015625 -56.773438 17.988281 -58.046875 21.3125 -58.046875 C 24.570312 -58.046875 27.5 -56.9375 30.09375 -54.71875 C 32.695312 -52.507812 34.742188 -49.304688 36.234375 -45.109375 C 37.722656 -40.910156 38.46875 -35.90625 38.46875 -30.09375 C 38.46875 -23.90625 37.722656 -18.445312 36.234375 -13.71875 C 34.742188 -9 32.6875 -5.363281 30.0625 -2.8125 C 27.4375 -0.269531 24.460938 1 21.140625 1 C 17.878906 1 14.945312 -0.101562 12.34375 -2.3125 C 9.75 -4.53125 7.707031 -7.738281 6.21875 -11.9375 C 4.726562 -16.144531 3.984375 -21.148438 3.984375 -26.953125 Z M 32.5 -26.03125 C 32.5 -32.113281 31.972656 -37.335938 30.921875 -41.703125 C 29.878906 -46.078125 28.441406 -49.382812 26.609375 -51.625 C 24.785156 -53.863281 22.742188 -55.007812 20.484375 -55.0625 C 18.429688 -55.0625 16.601562 -54.066406 15 -52.078125 C 13.40625 -50.085938 12.164062 -47.28125 11.28125 -43.65625 C 10.394531 -40.039062 9.953125 -35.828125 9.953125 -31.015625 C 9.953125 -24.929688 10.476562 -19.707031 11.53125 -15.34375 C 12.582031 -10.976562 14.019531 -7.660156 15.84375 -5.390625 C 17.664062 -3.117188 19.707031 -1.984375 21.96875 -1.984375 C 24.019531 -1.984375 25.847656 -2.976562 27.453125 -4.96875 C 29.054688 -6.957031 30.296875 -9.765625 31.171875 -13.390625 C 32.054688 -17.015625 32.5 -21.226562 32.5 -26.03125 Z M 32.5 -26.03125 "/></g></g></g><g fill="#000000" fill-opacity="1"><g transform="translate(1910.822572, 1095.361946)"><g><path d="M 8.453125 -7.71875 C 13.210938 -13.40625 16.628906 -17.535156 18.703125 -20.109375 C 20.773438 -22.679688 22.472656 -25.097656 23.796875 -27.359375 C 25.234375 -29.796875 26.269531 -32.132812 26.90625 -34.375 C 27.539062 -36.613281 27.859375 -38.894531 27.859375 -41.21875 C 27.859375 -43.695312 27.359375 -45.832031 26.359375 -47.625 C 25.367188 -49.425781 24.054688 -50.796875 22.421875 -51.734375 C 20.796875 -52.679688 19.046875 -53.15625 17.171875 -53.15625 C 13.679688 -53.15625 10.875 -51.882812 8.75 -49.34375 C 6.625 -46.800781 5.5625 -43.59375 5.5625 -39.71875 C 4.5625 -41.101562 4.0625 -42.925781 4.0625 -45.1875 C 4.0625 -47.289062 4.597656 -49.335938 5.671875 -51.328125 C 6.753906 -53.316406 8.375 -54.929688 10.53125 -56.171875 C 12.6875 -57.421875 15.285156 -58.046875 18.328125 -58.046875 C 21.148438 -58.046875 23.734375 -57.378906 26.078125 -56.046875 C 28.429688 -54.722656 30.3125 -52.84375 31.71875 -50.40625 C 33.125 -47.976562 33.828125 -45.160156 33.828125 -41.953125 C 33.828125 -36.753906 31.753906 -31.363281 27.609375 -25.78125 C 23.742188 -20.476562 18.828125 -14.484375 12.859375 -7.796875 L 10.359375 -4.96875 L 27.203125 -4.96875 C 30.078125 -4.96875 32.234375 -5.394531 33.671875 -6.25 C 35.109375 -7.113281 36.070312 -7.960938 36.5625 -8.796875 L 35 0 L 1.984375 0 Z M 8.453125 -7.71875 "/></g></g></g><g fill="#000000" fill-opacity="1"><g transform="translate(1970.61246, 1095.361946)"><g><path d="M 22.0625 -32.34375 C 26.3125 -31.289062 29.554688 -29.335938 31.796875 -26.484375 C 34.035156 -23.640625 35.15625 -20.453125 35.15625 -16.921875 C 35.15625 -13.765625 34.421875 -10.816406 32.953125 -8.078125 C 31.492188 -5.347656 29.367188 -3.148438 26.578125 -1.484375 C 23.785156 0.171875 20.507812 1 16.75 1 C 13.820312 1 11.347656 0.613281 9.328125 -0.15625 C 7.304688 -0.9375 5.25 -1.988281 3.15625 -3.3125 L 3.15625 -9.953125 C 4.09375 -7.898438 5.804688 -6.097656 8.296875 -4.546875 C 10.785156 -3.003906 13.546875 -2.234375 16.578125 -2.234375 C 20.617188 -2.234375 23.726562 -3.460938 25.90625 -5.921875 C 28.09375 -8.390625 29.1875 -11.445312 29.1875 -15.09375 C 29.1875 -19.40625 27.859375 -22.722656 25.203125 -25.046875 C 22.554688 -27.367188 19.210938 -28.53125 15.171875 -28.53125 L 13.59375 -28.53125 L 13.59375 -29.859375 C 17.25 -31.128906 20.207031 -32.9375 22.46875 -35.28125 C 24.738281 -37.632812 25.875 -40.359375 25.875 -43.453125 C 25.875 -46.273438 25.054688 -48.582031 23.421875 -50.375 C 21.796875 -52.164062 19.546875 -53.0625 16.671875 -53.0625 C 14.898438 -53.0625 13.238281 -52.617188 11.6875 -51.734375 C 10.144531 -50.859375 8.890625 -49.578125 7.921875 -47.890625 C 6.953125 -46.203125 6.46875 -44.195312 6.46875 -41.875 C 5.46875 -43.195312 4.96875 -44.882812 4.96875 -46.9375 C 4.96875 -50.300781 6.210938 -52.992188 8.703125 -55.015625 C 11.191406 -57.035156 14.175781 -58.046875 17.65625 -58.046875 C 21.476562 -58.046875 24.6875 -56.9375 27.28125 -54.71875 C 29.875 -52.507812 31.171875 -49.523438 31.171875 -45.765625 C 31.171875 -43.335938 30.351562 -40.878906 28.71875 -38.390625 C 27.09375 -35.898438 24.875 -33.882812 22.0625 -32.34375 Z M 22.0625 -32.34375 "/></g></g></g></svg>